<svg width="181" height="46" viewBox="0 0 181 46" fill="none" xmlns="http://www.w3.org/2000/svg">
<path d="M69.8221 7.30569V1.45817H67.7969V0.238281H73.3174V1.45817H71.2878V7.30569H69.8221V7.30569Z" fill="black"/>
<path d="M73.8125 0.739191C73.8125 0.313496 74.1528 0 74.5705 0C74.9881 0 75.3284 0.313496 75.3284 0.739191C75.3284 1.15499 74.9881 1.47838 74.5705 1.47838C74.1517 1.47948 73.8125 1.15609 73.8125 0.739191ZM73.8605 2.05697H75.2782V7.30721H73.8605V2.05697Z" fill="black"/>
<path d="M76.2188 2.05857H77.5885V3.00346H77.618C77.9146 2.33246 78.4435 1.98047 79.244 1.98047C80.4 1.98047 81.05 2.71526 81.05 3.94394V7.3088H79.6323V4.24314C79.6323 3.55785 79.3171 3.16625 78.6704 3.16625C78.0291 3.16625 77.6365 3.63595 77.6365 4.32234V7.3099H76.2188V2.05857V2.05857Z" fill="black"/>
<path d="M85.1885 2.05546H86.796L84.8101 4.30823L86.8931 7.30569H85.2616L83.7707 5.17062L83.4021 5.57211V7.30569H81.9844V0.238281H83.4021V4.16083H83.4218L85.1885 2.05546Z" fill="black"/>
<path d="M91.8054 5.7015C91.6505 6.72448 90.7082 7.40097 89.4311 7.40097C87.8389 7.40097 86.8672 6.37799 86.8672 4.70711C86.8672 3.03183 87.8433 1.96484 89.3777 1.96484C90.8882 1.96484 91.849 2.97903 91.849 4.57511V5.01071H88.261V5.0987C88.261 5.83789 88.7419 6.34279 89.4551 6.34279C89.9644 6.34279 90.3723 6.09749 90.5043 5.7015H91.8054ZM88.2762 4.13512H90.4857C90.4563 3.46412 90.0201 3.02303 89.393 3.02303C88.7757 3.02303 88.3242 3.47842 88.2762 4.13512Z" fill="black"/>
<path d="M92.5781 2.05599H93.9479V3.00087H93.9773C94.1573 2.34968 94.6033 1.99219 95.2152 1.99219C95.3798 1.99219 95.5162 2.01199 95.6187 2.04609V3.30447C95.502 3.25497 95.3079 3.22087 95.1039 3.22087C94.4049 3.22087 93.997 3.65207 93.997 4.39126V7.30512H92.5792V2.05599H92.5781Z" fill="black"/>
<path d="M101.133 7.30569V4.08823H97.2876V7.30569H96.4141V0.238281H97.2876V3.29404H101.133V0.238281H102.007V7.30459H101.133V7.30569Z" fill="black"/>
<path d="M107.382 7.30497H106.581V6.45798H106.561C106.25 7.05088 105.736 7.35447 104.959 7.35447C103.857 7.35447 103.211 6.63508 103.211 5.479V2.21204H104.056V5.3272C104.056 6.15439 104.44 6.60098 105.222 6.60098C106.042 6.60098 106.538 6.03339 106.538 5.1666V2.21094H107.384V7.30497H107.382Z" fill="black"/>
<path d="M109.349 6.4433H109.329V7.30569H108.523V0.238281H109.369V3.03995H109.388C109.703 2.48115 110.291 2.16326 111.006 2.16326C112.277 2.16326 113.137 3.20164 113.137 4.75922C113.137 6.3212 112.277 7.35519 110.99 7.35519C110.252 7.35409 109.674 7.0307 109.349 6.4433ZM109.363 4.75812C109.363 5.85481 109.955 6.5995 110.825 6.5995C111.698 6.5995 112.272 5.88011 112.272 4.75812C112.272 3.64164 111.699 2.91675 110.825 2.91675C109.955 2.91675 109.363 3.66694 109.363 4.75812Z" fill="black"/>
<path d="M15.9903 45.6884C6.43731 45.6884 0.820312 40.1124 0.820312 31.5434C0.820312 22.9744 6.43731 17.3984 15.9903 17.3984C25.2153 17.3984 30.7503 21.7854 30.7503 29.1244V29.8214H22.1403V29.1244C22.1403 26.0084 20.6643 24.7784 16.1133 24.7784C10.5373 24.7784 9.02031 26.0904 9.02031 31.5434C9.02031 36.9964 10.5373 38.3084 16.1133 38.3084C20.6643 38.3084 22.1403 37.0784 22.1403 33.9624V33.2654H30.7503V33.9624C30.7503 41.3014 25.2153 45.6884 15.9903 45.6884Z" fill="black"/>
<path d="M40.8991 45.2784H33.1911V17.8084H49.2221C56.4791 17.8084 60.2921 20.8424 60.2921 26.2134C60.2921 30.5594 58.1191 33.1424 52.8711 33.7984V34.2084C55.7001 34.9464 56.6021 36.2994 57.6271 38.3904L61.0301 45.2784H52.1331L48.8531 38.5544C47.8691 36.5044 47.0491 35.9304 44.0561 35.9304H40.8991V45.2784ZM40.8991 24.7374V30.1904H49.1401C51.3951 30.1904 52.2151 29.7804 52.2151 27.4434C52.2151 25.2704 51.3951 24.7374 49.1401 24.7374H40.8991Z" fill="black"/>
<path d="M87.0645 45.2784H62.6695V17.8084H87.0645V24.7374H70.3775V28.0174H86.4495V34.9054H70.3775V38.3494H87.0645V45.2784Z" fill="black"/>
<path d="M104.015 45.2784H90.1164V17.8084H104.015C113.076 17.8084 118.816 22.8514 118.816 31.5434C118.816 40.2354 113.076 45.2784 104.015 45.2784ZM104.015 24.7374H97.8244V38.3494H104.015C108.894 38.3494 110.575 37.7344 110.575 31.5434C110.575 25.3524 108.894 24.7374 104.015 24.7374Z" fill="black"/>
<path d="M136.067 45.6884C126.514 45.6884 120.856 40.1124 120.856 31.5434C120.856 22.9744 126.514 17.3984 136.067 17.3984C145.866 17.3984 151.442 22.9744 151.442 31.5434C151.442 40.1124 145.866 45.6884 136.067 45.6884ZM136.067 38.3084C141.643 38.3084 143.242 36.9964 143.242 31.5434C143.242 26.0904 141.643 24.7784 136.067 24.7784C130.491 24.7784 129.056 26.0904 129.056 31.5434C129.056 36.9964 130.491 38.3084 136.067 38.3084Z" fill="black"/>
<path d="M167.232 45.6884C158.827 45.6884 153.702 42.6954 153.702 35.7254V35.4794H161.41V36.3404C161.41 38.1854 162.066 38.6774 167.232 38.6774C171.906 38.6774 172.398 38.3084 172.398 37.0784C172.398 36.0944 171.865 35.6844 169.61 35.3974L161 34.2494C155.875 33.5524 153.292 30.8054 153.292 26.3774C153.292 21.9904 156.695 17.3984 166.617 17.3984C175.35 17.3984 179.532 21.2114 179.532 27.3614V27.6074H171.824V26.9924C171.824 25.0244 170.963 24.3684 165.797 24.3684C161.861 24.3684 161 24.9014 161 26.0904C161 26.9514 161.492 27.3614 162.968 27.5664L171.578 28.8374C178.302 29.8214 180.106 33.2654 180.106 36.7914C180.106 41.5064 176.498 45.6884 167.232 45.6884Z" fill="black"/>
</svg>
